# xmcd CD database file
#
# Track frame offsets:
#	150
#	31850
#	77701
#	97717
#	114974
#	140338
#	161799
#	175108
#	188946
#	202045
#	215360
#	228449
#
# Disc length: 3216 seconds
#
# Revision: 0
# Processed by: cddbd v1.5.2PL0 Copyright (c) Steve Scherf et al.
# Submitted via: CDex 1.70beta2
#
DISCID=960c8e0c
DTITLE=Sammy Price - Good Paree
DYEAR=1956
DGENRE=Jazz
TTITLE0=Blues des chaussures neuves
TTITLE1=Swing that rhythm
TTITLE2=gotta boogie, gotta woogie
TTITLE3=Clarinette créole
TTITLE4=Helene's Blues
TTITLE5=Swingin' Kansas City style
TTITLE6=Eiffel tower
TTITLE7=Montparnasse
TTITLE8=Good Paree
TTITLE9=Low down blues
TTITLE10=Sammy's boogie
TTITLE11=Frenchy's blues
EXTD=YEAR: 1956
EXTT0=
EXTT1=
EXTT2=
EXTT3=
EXTT4=
EXTT5=
EXTT6=
EXTT7=
EXTT8=
EXTT9=
EXTT10=
EXTT11=
PLAYORDER=
